<svg width="24" height="25" viewBox="0 0 24 25" fill="none" xmlns="http://www.w3.org/2000/svg">
<path d="M11.0512 5.02536H7.29395C5.79093 5.02536 5.03942 5.02536 4.46534 5.31787C3.96036 5.57517 3.54981 5.98573 3.29251 6.4907C3 7.06478 3 7.81629 3 9.31932V16.8337C3 18.3368 3 19.0883 3.29251 19.6623C3.54981 20.1673 3.96036 20.5779 4.46534 20.8352C5.03942 21.1277 5.79093 21.1277 7.29395 21.1277H14.8084C16.3114 21.1277 17.0629 21.1277 17.637 20.8352C18.142 20.5779 18.5525 20.1673 18.8098 19.6623C19.1023 19.0883 19.1023 18.3368 19.1023 16.8337V13.0765M8.36742 15.7602H9.86542C10.303 15.7602 10.5218 15.7602 10.7277 15.7108C10.9103 15.667 11.0848 15.5947 11.2449 15.4966C11.4255 15.386 11.5802 15.2312 11.8896 14.9218L20.4442 6.36722C21.1853 5.62614 21.1853 4.42459 20.4442 3.6835C19.7031 2.94241 18.5016 2.94241 17.7605 3.6835L9.20587 12.2381C8.89643 12.5475 8.74171 12.7022 8.63107 12.8828C8.53297 13.0429 8.46068 13.2174 8.41685 13.3999C8.36742 13.6059 8.36742 13.8247 8.36742 14.2623V15.7602Z" stroke="#666666" stroke-width="1.5" stroke-linecap="round" stroke-linejoin="round"/>
</svg>
