<svg width="24" height="25" viewBox="0 0 24 25" fill="none" xmlns="http://www.w3.org/2000/svg">
<path d="M8.5 15.6277L15.5 8.62766M9 4.12769V2.12769M15 20.1277V22.1277M4 9.12769H2M20 15.1277H22M4.91421 5.0419L3.5 3.62769M19.0858 19.2134L20.5 20.6276M12 17.7845L9.87871 19.9058C8.31662 21.4679 5.78396 21.4679 4.22186 19.9058C2.65976 18.3437 2.65976 15.811 4.22186 14.2489L6.34318 12.1276M17.6569 12.1276L19.7782 10.0063C21.3403 8.44418 21.3403 5.91152 19.7782 4.34942C18.2161 2.78733 15.6835 2.78733 14.1214 4.34942L12 6.47074" stroke="#666666" stroke-width="1.5" stroke-linecap="round" stroke-linejoin="round"/>
</svg>
