<svg width="24" height="25" viewBox="0 0 24 25" fill="none" xmlns="http://www.w3.org/2000/svg">
<path d="M8.59 13.6377L15.42 17.6177M15.41 6.63769L8.59 10.6177M21 5.12769C21 6.78454 19.6569 8.12769 18 8.12769C16.3431 8.12769 15 6.78454 15 5.12769C15 3.47083 16.3431 2.12769 18 2.12769C19.6569 2.12769 21 3.47083 21 5.12769ZM9 12.1277C9 13.7845 7.65685 15.1277 6 15.1277C4.34315 15.1277 3 13.7845 3 12.1277C3 10.4708 4.34315 9.12769 6 9.12769C7.65685 9.12769 9 10.4708 9 12.1277ZM21 19.1277C21 20.7845 19.6569 22.1277 18 22.1277C16.3431 22.1277 15 20.7845 15 19.1277C15 17.4708 16.3431 16.1277 18 16.1277C19.6569 16.1277 21 17.4708 21 19.1277Z" stroke="#666666" stroke-width="1.5" stroke-linecap="round" stroke-linejoin="round"/>
</svg>
